<svg xmlns="http://www.w3.org/2000/svg" viewBox="0 0 1200 1800"><defs><linearGradient id="s" x2="0" y2="1"><stop stop-color="#ffd9e3"/><stop offset="1" stop-color="#7eafe5"/></linearGradient><linearGradient id="w" x2="0" y2="1"><stop stop-color="#7eafe5" stop-opacity=".28"/><stop offset="1" stop-color="#0c263d" stop-opacity=".9"/></linearGradient><pattern id="win" width="26" height="34" patternUnits="userSpaceOnUse"><rect x="8" y="9" width="6" height="11" rx="2" fill="#ffb7d1" opacity=".42"/></pattern><linearGradient id="b" x2="0" y2="1"><stop stop-color="#2b4f71"/><stop offset="1" stop-color="#0b1e31"/></linearGradient></defs><rect width="1200" height="1800" fill="url(#s)"/><circle cx="260" cy="371" r="58" fill="#fff2c9" opacity=".92"/><polygon points="0,1010 160,820 330,900 520,710 730,900 930,680 1200,850 1200,1080 0,1080" fill="#173651" opacity=".38"/><rect y="1050" width="1200" height="750" fill="url(#w)"/><path d="M-50 1390C260 1280 700 1430 1260 1210" fill="none" stroke="#172d46" stroke-width="44"/><path d="M-50 1386C260 1276 700 1426 1260 1206" fill="none" stroke="#ffb7d1" stroke-width="5" opacity=".7"/><g fill="#ffc0d5" opacity=".58"><circle cx="80" cy="1250" r="12"/><circle cx="210" cy="1430" r="12"/><circle cx="360" cy="1180" r="12"/><circle cx="490" cy="1510" r="12"/><circle cx="640" cy="1290" r="12"/><circle cx="770" cy="1600" r="12"/><circle cx="900" cy="1370" r="12"/><circle cx="1060" cy="1500" r="12"/><circle cx="1140" cy="1220" r="12"/></g><g><rect x="-30" y="1445" width="121" height="355" rx="7" fill="url(#b)"/><rect x="105" y="1210" width="107" height="590" rx="7" fill="url(#b)"/><rect x="237" y="1326" width="90" height="474" rx="7" fill="url(#b)"/><rect x="343" y="1433" width="130" height="367" rx="7" fill="url(#b)"/><rect x="488" y="1252" width="98" height="548" rx="7" fill="url(#b)"/><rect x="597" y="975" width="123" height="825" rx="7" fill="url(#b)"/><rect x="732" y="958" width="86" height="842" rx="7" fill="url(#b)"/><rect x="841" y="940" width="99" height="860" rx="7" fill="url(#b)"/><rect x="966" y="1211" width="98" height="589" rx="7" fill="url(#b)"/><rect x="1089" y="1395" width="91" height="405" rx="7" fill="url(#b)"/><rect x="1198" y="1078" width="96" height="722" rx="7" fill="url(#b)"/></g><g opacity=".75"><rect x="-20" y="1470" width="101" height="300" fill="url(#win)"/><rect x="115" y="1235" width="87" height="535" fill="url(#win)"/><rect x="247" y="1351" width="70" height="419" fill="url(#win)"/><rect x="353" y="1458" width="110" height="312" fill="url(#win)"/><rect x="498" y="1277" width="78" height="493" fill="url(#win)"/><rect x="607" y="1000" width="103" height="770" fill="url(#win)"/><rect x="742" y="983" width="66" height="787" fill="url(#win)"/><rect x="851" y="965" width="79" height="805" fill="url(#win)"/><rect x="976" y="1236" width="78" height="534" fill="url(#win)"/><rect x="1099" y="1420" width="71" height="350" fill="url(#win)"/><rect x="1208" y="1103" width="76" height="667" fill="url(#win)"/></g><rect y="1760" width="1200" height="40" fill="#0b1c2c" opacity=".8"/></svg>