<svg xmlns="http://www.w3.org/2000/svg" viewBox="0 0 1200 1800"><defs><linearGradient id="s" x2="0" y2="1"><stop stop-color="#bce8e3"/><stop offset="1" stop-color="#5ba4b4"/></linearGradient><linearGradient id="w" x2="0" y2="1"><stop stop-color="#5ba4b4" stop-opacity=".28"/><stop offset="1" stop-color="#0c263d" stop-opacity=".9"/></linearGradient><pattern id="win" width="26" height="34" patternUnits="userSpaceOnUse"><rect x="8" y="9" width="6" height="11" rx="2" fill="#a5f0c8" opacity=".42"/></pattern><linearGradient id="b" x2="0" y2="1"><stop stop-color="#24525a"/><stop offset="1" stop-color="#0b1e31"/></linearGradient></defs><rect width="1200" height="1800" fill="url(#s)"/><circle cx="600" cy="291" r="58" fill="#fff2c9" opacity=".92"/><polygon points="0,1010 160,820 330,900 520,710 730,900 930,680 1200,850 1200,1080 0,1080" fill="#173651" opacity=".38"/><rect y="1050" width="1200" height="750" fill="url(#w)"/><g fill="#59ba84" opacity=".55"><circle cx="60" cy="1320" r="30"/><circle cx="180" cy="1470" r="30"/><circle cx="340" cy="1260" r="30"/><circle cx="480" cy="1580" r="30"/><circle cx="650" cy="1380" r="30"/><circle cx="800" cy="1510" r="30"/><circle cx="960" cy="1270" r="30"/><circle cx="1110" cy="1540" r="30"/></g><g><rect x="-30" y="1145" width="114" height="655" rx="7" fill="url(#b)"/><rect x="111" y="1477" width="131" height="323" rx="7" fill="url(#b)"/><rect x="256" y="1358" width="119" height="442" rx="7" fill="url(#b)"/><rect x="403" y="971" width="75" height="829" rx="7" fill="url(#b)"/><rect x="500" y="1093" width="114" height="707" rx="7" fill="url(#b)"/><rect x="627" y="1388" width="143" height="412" rx="7" fill="url(#b)"/><rect x="796" y="1036" width="142" height="764" rx="7" fill="url(#b)"/><rect x="951" y="930" width="74" height="870" rx="7" fill="url(#b)"/><rect x="1038" y="1249" width="77" height="551" rx="7" fill="url(#b)"/><rect x="1129" y="1193" width="75" height="607" rx="7" fill="url(#b)"/><rect x="1222" y="1385" width="123" height="415" rx="7" fill="url(#b)"/></g><g opacity=".75"><rect x="-20" y="1170" width="94" height="600" fill="url(#win)"/><rect x="121" y="1502" width="111" height="268" fill="url(#win)"/><rect x="266" y="1383" width="99" height="387" fill="url(#win)"/><rect x="413" y="996" width="55" height="774" fill="url(#win)"/><rect x="510" y="1118" width="94" height="652" fill="url(#win)"/><rect x="637" y="1413" width="123" height="357" fill="url(#win)"/><rect x="806" y="1061" width="122" height="709" fill="url(#win)"/><rect x="961" y="955" width="54" height="815" fill="url(#win)"/><rect x="1048" y="1274" width="57" height="496" fill="url(#win)"/><rect x="1139" y="1218" width="55" height="552" fill="url(#win)"/><rect x="1232" y="1410" width="103" height="360" fill="url(#win)"/></g><rect y="1760" width="1200" height="40" fill="#0b1c2c" opacity=".8"/></svg>